<svg width="128" height="128" viewBox="0 0 128 128" fill="none" xmlns="http://www.w3.org/2000/svg">
<g clip-path="url(#clip0_159_36320)">
<rect width="128" height="128" rx="32" fill="#FFFBFE"/>
<path d="M-20.7523 126.742C-20.4488 127.502 -19.7132 128 -18.8951 128H-17.78C-16.9649 128 -16.2314 127.505 -15.9259 126.75L1.58534 83.4497C2.25728 81.7882 4.6072 81.7812 5.28906 83.4386L22.9217 126.301C23.2301 127.05 23.9606 127.54 24.7713 127.54H26.0482C26.8661 127.54 27.6016 127.042 27.9052 126.282L70.9034 18.7425C71.4287 17.4288 70.4612 16 69.0464 16H48.7735C47.9511 16 47.2125 16.5034 46.9119 17.2689L27.2867 67.2391C26.6212 68.9337 24.2218 68.9301 23.5614 67.2335L4.22848 17.5721C4.11156 17.2718 3.8223 17.074 3.5 17.074V17.074C3.17771 17.074 2.88844 17.2718 2.77152 17.5721L-16.5614 67.2335C-17.2218 68.9301 -19.6212 68.9337 -20.2867 67.2391L-39.9119 17.2689C-40.2125 16.5034 -40.9511 16 -41.7735 16H-62.0471C-63.4618 16 -64.4293 17.4284 -63.9044 18.7421L-20.7523 126.742Z" fill="#EADDFF"/>
<path d="M-8.75233 126.742C-8.44879 127.502 -7.71319 128 -6.8951 128H-5.77997C-4.96493 128 -4.23143 127.505 -3.92586 126.75L13.5853 83.4497C14.2573 81.7882 16.6072 81.7812 17.2891 83.4386L34.9217 126.301C35.2301 127.05 35.9606 127.54 36.7713 127.54H38.0482C38.8661 127.54 39.6016 127.042 39.9052 126.282L82.9034 18.7425C83.4287 17.4288 82.4612 16 81.0464 16H60.7735C59.9511 16 59.2125 16.5034 58.9119 17.2689L39.2867 67.2391C38.6212 68.9337 36.2218 68.9301 35.5614 67.2335L16.2285 17.5721C16.1116 17.2718 15.8223 17.074 15.5 17.074V17.074C15.1777 17.074 14.8884 17.2718 14.7715 17.5721L-4.56139 67.2335C-5.22185 68.9301 -7.62121 68.9337 -8.28673 67.2391L-27.9119 17.2689C-28.2125 16.5034 -28.9511 16 -29.7735 16H-50.0471C-51.4618 16 -52.4293 17.4284 -51.9044 18.7421L-8.75233 126.742Z" fill="#B69DF8"/>
<path d="M3.24766 126.742C3.5512 127.502 4.28681 128 5.1049 128H6.22003C7.03506 128 7.76857 127.505 8.07414 126.75L25.5853 83.4497C26.2573 81.7882 28.6072 81.7812 29.2891 83.4386L46.9217 126.301C47.2301 127.05 47.9606 127.54 48.7713 127.54H50.0482C50.8661 127.54 51.6016 127.042 51.9052 126.282L94.9034 18.7425C95.4287 17.4288 94.4612 16 93.0464 16H72.7735C71.9511 16 71.2125 16.5034 70.9119 17.2689L51.2867 67.2391C50.6212 68.9337 48.2218 68.9301 47.5614 67.2335L28.2285 17.5721C28.1116 17.2718 27.8223 17.074 27.5 17.074V17.074C27.1777 17.074 26.8884 17.2718 26.7715 17.5721L7.43861 67.2335C6.77815 68.9301 4.37879 68.9337 3.71327 67.2391L-15.9119 17.2689C-16.2125 16.5034 -16.9511 16 -17.7735 16H-38.0471C-39.4618 16 -40.4293 17.4284 -39.9044 18.7421L3.24766 126.742Z" fill="#7F67BE"/>
</g>
<defs>
<clipPath id="clip0_159_36320">
<rect width="128" height="128" rx="32" fill="white"/>
</clipPath>
</defs>
</svg>
